<svg aria-hidden="true" style="position: absolute; width: 0; height: 0; overflow: hidden;" version="1.1" xmlns="http://www.w3.org/2000/svg" xmlns:xlink="http://www.w3.org/1999/xlink">
<defs>
<symbol id="icon-sitemap" viewBox="0 0 32 32">
<path d="M23.972 26.965h-2.99c-0.55 0-0.997-0.445-0.997-0.996v-1.994c0-0.549 0.447-0.996 0.997-0.996h1.993v-4.984h-6.977v4.984h0.996c0.551 0 0.997 0.447 0.997 0.996v1.994c0 0.551-0.446 0.996-0.997 0.996h-2.99c-0.55 0-0.996-0.445-0.996-0.996v-1.994c0-0.549 0.446-0.996 0.996-0.996h0.998v-4.984h-6.978v4.984h1.993c0.551 0 0.997 0.447 0.997 0.996v1.994c0 0.551-0.446 0.996-0.997 0.996h-2.989c-0.551 0-0.997-0.445-0.997-0.996v-1.994c0-0.549 0.446-0.996 0.997-0.996v-5.98h7.974v-3.987h-2.99c-0.551 0-0.997-0.446-0.997-0.997v-4.984c0-0.55 0.446-0.997 0.997-0.997h6.977c0.551 0 0.996 0.446 0.996 0.997v4.983c0 0.55-0.445 0.997-0.996 0.997h-2.99v3.987h7.974v5.98c0.55 0 0.997 0.447 0.997 0.996v1.994c-0.001 0.552-0.449 0.997-0.998 0.997zM7.028 23.975v1.994h2.989v-1.994h-2.989zM18.988 12.015v-4.984h-6.977v4.983h6.977zM14.004 23.975v1.994h2.99v-1.994h-2.99zM23.972 23.975h-2.99v1.994h2.99v-1.994z"></path>
</symbol>
<symbol id="icon-tree" viewBox="0 0 32 32">
<path d="M30.5 24h-0.5v-6.5c0-1.93-1.57-3.5-3.5-3.5h-8.5v-4h0.5c0.825 0 1.5-0.675 1.5-1.5v-5c0-0.825-0.675-1.5-1.5-1.5h-5c-0.825 0-1.5 0.675-1.5 1.5v5c0 0.825 0.675 1.5 1.5 1.5h0.5v4h-8.5c-1.93 0-3.5 1.57-3.5 3.5v6.5h-0.5c-0.825 0-1.5 0.675-1.5 1.5v5c0 0.825 0.675 1.5 1.5 1.5h5c0.825 0 1.5-0.675 1.5-1.5v-5c0-0.825-0.675-1.5-1.5-1.5h-0.5v-6h8v6h-0.5c-0.825 0-1.5 0.675-1.5 1.5v5c0 0.825 0.675 1.5 1.5 1.5h5c0.825 0 1.5-0.675 1.5-1.5v-5c0-0.825-0.675-1.5-1.5-1.5h-0.5v-6h8v6h-0.5c-0.825 0-1.5 0.675-1.5 1.5v5c0 0.825 0.675 1.5 1.5 1.5h5c0.825 0 1.5-0.675 1.5-1.5v-5c0-0.825-0.675-1.5-1.5-1.5zM6 30h-4v-4h4v4zM18 30h-4v-4h4v4zM14 8v-4h4v4h-4zM30 30h-4v-4h4v4z"></path>
</symbol>
</defs>
</svg>
